<?xml version="1.0" encoding="UTF-8" standalone="no"?><!-- Created with Inkscape (http://www.inkscape.org/) --><svg xmlns:dc="http://purl.org/dc/elements/1.1/" xmlns:cc="http://creativecommons.org/ns#" xmlns:rdf="http://www.w3.org/1999/02/22-rdf-syntax-ns#" xmlns:svg="http://www.w3.org/2000/svg" xmlns="http://www.w3.org/2000/svg" xmlns:sodipodi="http://sodipodi.sourceforge.net/DTD/sodipodi-0.dtd" xmlns:inkscape="http://www.inkscape.org/namespaces/inkscape" width="153.20638mm" height="153.68568mm" viewBox="0 0 542.85723 544.55557" id="svg2" version="1.1" inkscape:version="0.91 r13725" sodipodi:docname="fifteen52_004.svg">
  <defs id="defs4"/>
  <sodipodi:namedview id="base" pagecolor="#ffffff" bordercolor="#666666" borderopacity="1.0" inkscape:pageopacity="0.0" inkscape:pageshadow="2" inkscape:zoom="0.7" inkscape:cx="133.33791" inkscape:cy="242.942" inkscape:document-units="px" inkscape:current-layer="layer1" showgrid="false" fit-margin-top="0" fit-margin-left="0" fit-margin-right="0" fit-margin-bottom="0" inkscape:window-width="1280" inkscape:window-height="697" inkscape:window-x="-8" inkscape:window-y="-8" inkscape:window-maximized="1"/>
  <metadata id="metadata7">
    <rdf:RDF>
      <cc:Work rdf:about="">
        <dc:format>image/svg+xml</dc:format>
        <dc:type rdf:resource="http://purl.org/dc/dcmitype/StillImage"/>
        <dc:title/>
      </cc:Work>
    </rdf:RDF>
  </metadata>
  <g inkscape:label="レイヤー 1" inkscape:groupmode="layer" id="layer1" transform="translate(-139.14926,-461.36134)">
    <path style="fill:#ffffff;fill-opacity:1" d="m 473.28615,989.0887 c -19.85156,-9.20635 -40.10156,-18.63618 -45,-20.95518 -4.89844,-2.31899 -23.03906,-10.73097 -40.3125,-18.69329 -26.43034,-12.18326 -43.70173,-20.19887 -91.64062,-42.53024 -2.70703,-1.26101 -4.92188,-2.61965 -4.92188,-3.0192 0,-0.39954 6.22266,-0.98062 13.82813,-1.29129 23.15917,-0.94601 40.28444,-4.78794 57.14748,-12.82062 12.38899,-5.90146 18.39973,-9.95099 27.55714,-18.56561 4.10597,-3.86261 7.64733,-6.84101 7.86967,-6.61866 0.22234,0.22235 -0.42143,4.39229 -1.43061,9.26655 -1.00918,4.87425 -2.10845,12.31301 -2.44282,16.53058 l -0.60795,7.66829 82.03981,-0.55081 c 45.1219,-0.30295 82.70561,-0.29533 83.51936,0.017 1.22344,0.46948 0.0935,3.53775 -6.52797,17.72627 -10.63036,22.77875 -10.50882,22.51675 -24.70269,53.25226 -6.78639,14.69531 -13.43066,29.14453 -14.76503,32.10935 -1.33438,2.9649 -2.67131,5.3508 -2.97095,5.3021 -0.29965,-0.049 -16.78701,-7.62111 -36.63857,-16.82747 z M 179.84865,851.64069 c -11.22024,-5.20602 -18.19285,-8.45236 -36.36427,-16.9306 -5.6791,-2.64969 -5.65854,-2.23523 -0.64104,-12.92415 4.00659,-8.53534 7.17361,-15.46451 15.42566,-33.75 3.72314,-8.25 8.79336,-19.21875 11.26715,-24.375 2.4738,-5.15625 7.54384,-16.125 11.26675,-24.375 9.12473,-20.22042 8.90421,-19.96875 10.29129,-11.74523 0.61945,3.67253 1.40121,12.24354 1.73724,19.0467 l 0.61097,12.36936 12.1875,2.01558 c 15.04025,2.48736 46.30738,6.90962 48.79241,6.90094 1.05167,-0.004 2.8204,-1.45657 4.15067,-3.40947 3.43202,-5.03838 13.99404,-13.16315 20.78565,-15.98923 7.55416,-3.14337 17.49665,-3.47106 25.14752,-0.82881 6.867,2.37153 14.0334,9.49282 16.68507,16.58002 5.94107,15.87893 4.9413,40.32346 -2.22828,54.48192 -9.66943,19.09518 -33.45219,20.95459 -47.13012,3.6848 -3.65244,-4.61157 -6.26667,-11.69144 -8.23477,-22.30141 l -1.45362,-7.83642 -3.76389,0 c -5.94035,0 -63.92318,6.58775 -64.68992,7.34978 -0.37911,0.37677 -0.80098,13.56032 -0.9375,29.29679 l -0.24822,28.61174 -12.65625,-5.87231 z m 365.77656,-41.42877 c 0.78448,-2.03031 8.54341,-8.08874 43.15786,-33.69909 17.60243,-13.02357 34.31092,-28.38019 42.94058,-39.46626 2.83594,-3.64318 5.28425,-6.24965 5.44068,-5.79214 0.15644,0.45751 -1.65036,4.98301 -4.01511,10.05667 -2.36474,5.07367 -10.56402,22.72484 -18.22063,39.22484 l -13.9211,30 -27.84974,0.24846 c -15.66169,0.13971 -27.71092,-0.11083 -27.53254,-0.57248 z m -120.48108,-9.7541 c 1.33216,-11.34265 0.84023,-32.15251 -0.98033,-41.47069 -2.07725,-10.63205 -6.88568,-23.14599 -12.35583,-32.15607 -3.74745,-6.17255 -15.22534,-20.59813 -18.43976,-23.17535 -0.64669,-0.5185 -3.49612,-2.87166 -6.33206,-5.22924 -12.16084,-10.10961 -26.69439,-16.53021 -45.70537,-20.1916 -16.43039,-3.16439 -43.97029,-1.58112 -59.09502,3.39736 -3.24178,1.06707 -6.23905,1.72698 -6.66059,1.46645 -0.79559,-0.4917 2.19298,-20.01336 3.22131,-21.04197 0.32071,-0.3208 28.07537,-0.58327 61.67702,-0.58327 60.5164,0 61.09255,0.0177 60.9514,1.875 -0.0784,1.03125 -0.73768,6.16047 -1.46512,11.39828 l -1.32263,9.52328 4.74637,0.55113 c 2.61051,0.30312 20.35576,1.8116 39.43388,3.3522 19.07812,1.54058 39.30967,3.22712 44.959,3.74784 5.64933,0.52072 10.60011,0.61816 11.00174,0.21653 0.40164,-0.40164 1.57824,-5.61372 2.61468,-11.58241 3.42954,-19.75012 7.42688,-27.31155 17.07604,-32.30133 4.35196,-2.25049 14.51527,-2.74432 20.49125,-0.99565 13.40851,3.92353 20.56352,17.58682 16.30295,31.13229 -3.43418,10.91815 -15.38717,25.93944 -30.88316,38.81078 -4.125,3.42633 -14.25,11.46161 -22.5,17.85617 -32.65606,25.31171 -60.51088,50.7764 -71.47122,65.33852 -2.83921,3.77225 -5.36485,6.85862 -5.61251,6.85862 -0.24767,0 -0.0911,-3.05859 0.34796,-6.79687 z m 229.5066,-109.6875 c 2.85053,-16.96203 3.10004,-27.05248 0.97001,-39.22891 -1.82237,-10.41772 -5.12868,-20.04129 -9.82581,-28.59972 -2.06733,-3.76678 -3.75878,-7.08515 -3.75878,-7.37418 0,-0.62578 3.09038,0.67885 15,6.33237 4.89844,2.3253 12.62999,5.94564 17.18123,8.04519 7.19804,3.32056 8.19636,4.06512 7.67082,5.72099 -0.33231,1.04698 -5.15336,11.71165 -10.71344,23.69924 -5.5601,11.9876 -11.42412,24.6433 -13.03116,28.12377 -3.20767,6.94702 -4.27788,7.9524 -3.49287,3.28125 z M 411.93995,624.63137 c -0.37414,-1.17879 -0.38626,-3.88336 -0.0269,-6.01016 0.35932,-2.12681 0.34699,-12.44495 -0.0274,-22.92922 l -0.68079,-19.0623 -76.77186,0 c -43.24753,0 -76.77187,-0.35823 -76.77187,-0.82035 0,-0.4512 1.94608,-4.98636 4.32462,-10.07813 2.37853,-5.09177 9.50147,-20.43746 15.82875,-34.10152 6.32727,-13.66406 13.47735,-29.0625 15.88905,-34.21875 2.41171,-5.15625 6.15048,-13.17187 8.30839,-17.8125 2.15791,-4.64062 4.97973,-10.64241 6.27072,-13.3373 l 2.34722,-4.8998 11.25,5.22043 c 6.1875,2.87123 16.94532,7.87656 23.90625,11.12296 6.96094,3.24639 15.60937,7.26639 19.21875,8.93333 3.60937,1.66694 18.375,8.51946 32.8125,15.22781 14.4375,6.70835 31.10156,14.41325 37.03125,17.122 5.92969,2.70875 19.85156,9.1365 30.9375,14.28389 11.08594,5.1474 22.05469,10.22724 24.375,11.28855 22.57586,10.32615 56.52547,26.44485 55.78125,26.484 -0.51562,0.0271 -7.05469,0.0185 -14.53125,-0.0191 -62.49964,-0.31479 -94.08159,14.16966 -117.75486,54.00596 -0.97922,1.6478 -1.07344,1.62587 -1.71634,-0.39974 z" id="path4160" inkscape:connector-curvature="0"/>
  </g>
</svg>