<svg xmlns="http://www.w3.org/2000/svg" xmlns:osb="http://www.openswatchbook.org/uri/2009/osb" xmlns:xlink="http://www.w3.org/1999/xlink" width="102.47417mm" height="29.927073mm" version="1.1" viewBox="0 0 102.47417 29.927073">
<defs>
<linearGradient id="a" x1="-869.91931" x2="-767.44513" y1="262.73834" y2="262.73834" gradientTransform="translate(-2.5059605e-6)" gradientUnits="userSpaceOnUse">
<stop offset="0"/>
<stop stop-color="#000080" offset="1"/>
</linearGradient>
</defs>
<g transform="translate(869.91932,-247.7748)">
<path d="m-782.42967 275.22624c-2.93486-1.37262-5.64403-2.63972-6.02038-2.81579l-0.68426-0.32012 1.05005-0.0662c1.90313-0.11994 3.31167-0.64303 4.41146-1.63828 0.36654-0.3317 0.56287-0.46023 0.52804-0.34571-0.0704 0.2315-0.24756 1.34303-0.24849 1.55907-5.3e-4 0.15335 0.27904 0.16334 4.57291 0.16334 2.5768 0 4.57362 0.0359 4.57362 0.0823 0 0.1541-2.68262 5.83672-2.76492 5.85694-0.0451 0.0111-2.48317-1.10292-5.41803-2.47555zm-58.1345-3.22182c-0.91701-0.22723-1.59928-0.73271-1.96421-1.45525-0.39984-0.79167-0.43901-1.1484-0.48417-4.41028l-0.0436-3.15019h-1.75493v-3.54689h1.7677l0.0262-1.13847 0.0262-1.13848 2.33348-1.19433c1.28341-0.65688 2.34398-1.19463 2.35681-1.195 0.0128-2.6e-4 0.0233 1.04939 0.0233 2.3328v2.33348h2.61349v3.54689h-2.62416l0.0287 2.66838 0.0287 2.66837 0.26189 0.22514c0.3102 0.26667 0.98403 0.30474 1.68102 0.095l0.43248-0.13016 0.0488 0.2935c0.13398 0.80511 0.31624 2.91049 0.25694 2.96826-0.29737 0.28972-4.07213 0.46079-5.01464 0.22725zm9.64257-9e-3c-3.87434-0.73168-5.98792-4.93677-4.46537-8.88411 2.17516-5.63927 12.38412-5.17149 13.62993 0.62453 0.1979 0.9207 0.20614 0.92526 0.37503 0.20748 0.77363-3.28789 3.79884-5.06931 7.96861-4.69238 4.03918 0.36513 5.95969 2.37329 6.18604 6.46836l0.0606 1.09673-4.70464 0.0111c-2.58755 6e-3 -4.73613 6e-3 -4.77464 0-0.11243-0.0177-0.0811 0.38457 0.0696 0.89177 0.51517 1.73477 2.71073 2.20566 4.10735 0.8809l0.37335-0.35414 1.82012 0.16879c1.00106 0.0928 2.04344 0.2017 2.31639 0.24193l0.49628 0.0731-0.38874 0.56004c-1.52698 2.19981-3.27974 2.9161-6.90421 2.82153-3.80136-0.0992-5.86661-1.52912-6.61682-4.58134l-0.16395-0.66701-4.74219-0.0242-4.74218-0.0242 0.062 0.3879c0.3398 2.125 2.72776 2.9331 4.18592 1.41653l0.35024-0.36427 2.29791 0.20994c2.70212 0.24688 2.45658 0.13593 1.95515 0.88338-1.54238 2.29916-5.02239 3.35194-8.75181 2.64763zm4.55703-7.86289c-0.38487-2.84435-4.15491-2.806-4.58846 0.0467l-0.0603 0.39669h4.70874zm14.2651 0.0479c-0.49687-2.94097-4.10795-2.93433-4.57852 8e-3l-0.0619 0.38704h4.70722zm-56.04641 3.24231v-4.43361h-1.77344v-3.54689h1.77344v-0.69183c0-3.63212 1.76934-4.69451 6.87925-4.13064 1.2855 0.14186 1.18316-0.0395 0.89182 1.58005l-0.24675 1.37165-0.93865-0.0504c-1.36391-0.0732-1.73743 0.1985-1.80855 1.31544l-0.0386 0.6057h2.26189v3.54689h-2.24014v8.86721h-4.7603zm8.40052-1.77345v-6.20705h4.7603v12.4141h-4.7603zm7.37379 1.77695v-4.43011l-0.86338-0.0268-0.86339-0.0268v-3.45355l1.69-0.0532 0.10384-1.14014c0.30354-3.33318 1.71707-4.13374 6.5445-3.70655 1.66506 0.14735 1.54786-0.1355 1.03268 2.49214l-0.0952 0.48578-0.90741-0.0553c-1.36937-0.0834-1.72482 0.17905-1.84879 1.36522l-0.0585 0.5594 2.31278 0.0526v3.45354l-1.14341 0.0262-1.1434 0.0262v8.86147h-4.7603zm45.42579-1.75361 0.0163-6.18372 4.401-0.05v1.99587l0.72338-0.70343c3.23076-3.14171 7.94334-1.43703 7.95554 2.87775 2e-3 0.66983-0.14646 0.593 1.60705 0.83232l1.1854 0.16179 0.51472-0.47043c1.6753-1.53112 3.41486-0.67149 3.41486 1.68749 0 2.80272-2.67685 3.44114-3.35131 0.79929l-0.17621-0.6902-0.3597 0.0266c-0.53579 0.0396-2.0829 0.20412-2.48317 0.26408l-0.35002 0.0524v5.58394h-4.75083l-0.0281-3.8969c-0.025-3.47074-0.0456-3.92887-0.18806-4.18915-0.65603-1.19828-2.4139-1.11463-3.05676 0.14547-0.29307 0.57447-0.3768 1.65602-0.3768 4.86715v3.07343h-4.71363zm32.10122 1.1324c0.0978-0.10873 0.70285-0.5769 1.34455-1.04039 2.03949-1.47307 2.82467-2.187 3.56897-3.24512 0.16377-0.23283-0.14424 0.46511-1.35034 3.05977l-0.66167 1.42342h-3.07932zm-6.75306-0.65929c0.51629-4.19786-3.33483-7.4922-7.47422-6.39363-0.87448 0.23208-0.84627 0.24868-0.72516-0.42654l0.10464-0.58337h3.38239c3.83749 0 3.44887-0.096 3.29882 0.8153-0.0726 0.44112-0.0722 0.44204 0.21558 0.48954 0.29894 0.0493 4.79786 0.42193 5.09468 0.42193 0.13445 0 0.19003-0.12572 0.27741-0.62751 0.29392-1.68781 1.35061-2.41948 2.43009-1.68263 1.39623 0.95304 0.73674 2.16206-2.66021 4.87683-1.77939 1.42204-2.96383 2.5051-3.65645 3.34343l-0.37159 0.44978zm12.61269-5.67677c0.28886-1.08085 0.10584-2.70877-0.41406-3.68306-0.30025-0.56265-0.33462-0.68091-0.15744-0.54177 0.0642 0.0504 0.5577 0.29133 1.09674 0.53541 0.53903 0.24409 0.99533 0.45779 1.01399 0.47489 0.0334 0.0306-1.46696 3.31003-1.55601 3.40121-0.0251 0.0257-0.0175-0.0583 0.0168-0.18668zm-90.76043-4.10692v-1.58676h4.7603v3.17352h-4.7603zm77.37814-0.93245v-1.39915c-2.82261-0.0162-5.64522-0.0324-8.46782-0.0486l2.972-6.20705c12.86453 5.98517 12.63987 5.84016 12.86453 5.98517 0.10252 0.0662-0.0118 0.0803-0.3895 0.0481-2.91757-0.24882-5.43181 0.72438-6.60843 2.55798-0.39118 0.6096-0.37078 0.6611-0.37078-0.93645z" fill="url(#a)" stroke-width=".264583"/>
</g>
</svg>